<svg id="SvgjsSvg1001" width="256" height="256" xmlns="http://www.w3.org/2000/svg" version="1.1" xmlns:xlink="http://www.w3.org/1999/xlink" xmlns:svgjs="http://svgjs.com/svgjs"><defs id="SvgjsDefs1002"></defs><g id="SvgjsG1008"><svg xmlns="http://www.w3.org/2000/svg" viewBox="0 0 60 60" width="256" height="256"><path fill="#f24652" d="M52,43V57a2.006,2.006,0,0,1-2,2H10a2.006,2.006,0,0,1-2-2V43l1-1H51Z" class="colorf24652 svgShape"></path><path fill="#e9edf3" d="M52,14V43H8V3a2.006,2.006,0,0,1,2-2H39a1.275,1.275,0,0,1,.2.01A4.511,4.511,0,0,1,42.4,2.4l8.2,8.2a4.511,4.511,0,0,1,1.39,3.2A1.275,1.275,0,0,1,52,14Z" class="colore9edf3 svgShape"></path><path fill="#c1cfdd" d="M51.99,13.8A2.006,2.006,0,0,0,50,12H44a3,3,0,0,1-3-3V3a2.006,2.006,0,0,0-1.8-1.99A4.511,4.511,0,0,1,42.4,2.4l8.2,8.2A4.511,4.511,0,0,1,51.99,13.8Z" class="colorc1cfdd svgShape"></path><circle cx="30" cy="25" r="14" fill="#f24652" class="colorf24652 svgShape"></circle><path fill="#c42f41" d="M35.71,27.68,30.7,32.71a.984.984,0,0,1-1.4,0l-5.01-5.03a.985.985,0,0,1,.7-1.68H27V18a1,1,0,0,1,1-1h4a1,1,0,0,1,1,1v8h2.01A.985.985,0,0,1,35.71,27.68Z" class="colorc42f41 svgShape"></path><path fill="#262626" d="M45,25A15,15,0,1,0,30,40,15.017,15.017,0,0,0,45,25ZM17,25A13,13,0,1,1,30,38,13.015,13.015,0,0,1,17,25Z" class="color262626 svgShape"></path><path fill="#262626" d="M36.417,28.387A1.985,1.985,0,0,0,35.01,25H34V18a2,2,0,0,0-2-2H28a2,2,0,0,0-2,2v7H24.99a1.985,1.985,0,0,0-1.408,3.386l5.011,5.032a2,2,0,0,0,2.816,0ZM24.99,27H27a1,1,0,0,0,1-1V18h4v8a1,1,0,0,0,1,1l2.007-.032,0,0h0L30.008,32Z" class="color262626 svgShape"></path><path fill="#262626" d="M10,60H50a3,3,0,0,0,3-3V14a5.547,5.547,0,0,0-1.694-4.108l-8.2-8.2A5.547,5.547,0,0,0,39,0H10A3,3,0,0,0,7,3V8A1,1,0,0,0,9,8V3a1,1,0,0,1,1-1H39a1,1,0,0,1,1,1V9a4,4,0,0,0,4,4h6a1,1,0,0,1,1,1V42H9V12a1,1,0,0,0-2,0V57A3,3,0,0,0,10,60ZM42,9V3.414L49.586,11H44A2,2,0,0,1,42,9Zm9,35V57a1,1,0,0,1-1,1H10a1,1,0,0,1-1-1V44Z" class="color262626 svgShape"></path><path fill="#262626" d="M19 56a1 1 0 001-1V52h2a3 3 0 000-6H19a1 1 0 00-1 1v8A1 1 0 0019 56zm1-8h2a1 1 0 010 2H20zM37 56a1 1 0 001-1V52h2a1 1 0 000-2H38V48h4a1 1 0 000-2H37a1 1 0 00-1 1v8A1 1 0 0037 56zM28 56h3a3 3 0 003-3V49a3 3 0 00-3-3H28a1 1 0 00-1 1v8A1 1 0 0028 56zm1-8h2a1 1 0 011 1v4a1 1 0 01-1 1H29z" class="color262626 svgShape"></path></svg></g></svg>