<svg id="Layer_2_00000171703158644392047410000013422278730257614504_" enable-background="new 0 0 512 512" height="512" viewBox="0 0 512 512" width="512" xmlns="http://www.w3.org/2000/svg"><g id="Icon"><g id="UserPlus"><path d="m360.1 467.2h-312.7c-27.1 0-46.4-26.4-38.1-52.2l32.9-102.8c10.6-32.9 46.7-50.1 78.9-37.6 21.4 8.3 48.9 14.8 82.5 14.8s61.2-6.5 82.5-14.8c32.3-12.5 68.4 4.6 78.9 37.6l32.9 102.8c8.6 25.8-10.7 52.2-37.8 52.2z" fill="#1e88e5"/><g fill="#90caf9"><circle cx="203.8" cy="147.9" r="103.1"/><path d="m477.2 166.2h-32.8v-32.8c0-15.1-12.2-27.3-27.3-27.3-15.1 0-27.3 12.2-27.3 27.3v32.8h-32.8c-15.1 0-27.3 12.2-27.3 27.3 0 15.1 12.2 27.3 27.3 27.3h32.8v32.8c0 15.1 12.2 27.3 27.3 27.3 15.1 0 27.3-12.2 27.3-27.3v-32.8h32.8c15.1 0 27.3-12.2 27.3-27.3.1-15.1-12.2-27.3-27.3-27.3z"/></g></g></g></svg>