<?xml version="1.0" encoding="iso-8859-1"?>
<!-- Generator: Adobe Illustrator 19.0.0, SVG Export Plug-In . SVG Version: 6.00 Build 0)  -->
<svg version="1.1" id="Capa_1" xmlns="http://www.w3.org/2000/svg" xmlns:xlink="http://www.w3.org/1999/xlink" x="0px" y="0px"
	 viewBox="0 0 512 512" style="enable-background:new 0 0 512 512;" xml:space="preserve">
<path style="fill:#FF4C4C;" d="M244.739,169.2V22.151c-81.212,0-147.048,65.836-147.048,147.049s65.836,147.049,147.049,147.049
	c47.326,0,89.41-22.372,116.306-57.101l0.014,0.011c19.26-24.867,30.729-56.071,30.729-89.959L244.739,169.2L244.739,169.2z"/>
<path style="fill:#F33939;" d="M345.853,169.2c0,23.77-5.646,46.218-15.661,66.087c-20.906,41.478-60.871,71.705-108.396,79.168
	c5.457,0.856,11.014,1.41,16.653,1.651c0.334,0.014,0.669,0.026,1.004,0.038c1.755,0.063,3.515,0.105,5.286,0.105
	c1.385,0,2.765-0.023,4.141-0.061c0.438-0.012,0.874-0.034,1.311-0.05c0.941-0.034,1.881-0.073,2.817-0.125
	c0.507-0.028,1.013-0.063,1.519-0.096c0.871-0.057,1.741-0.12,2.608-0.193c0.513-0.043,1.025-0.088,1.536-0.136
	c0.881-0.083,1.759-0.175,2.636-0.273c0.475-0.053,0.95-0.105,1.424-0.163c0.975-0.119,1.946-0.251,2.915-0.389
	c0.363-0.052,0.728-0.098,1.09-0.152c2.707-0.406,5.391-0.886,8.047-1.438c0.246-0.051,0.49-0.108,0.736-0.16
	c1.078-0.23,2.152-0.469,3.221-0.722c0.334-0.079,0.666-0.163,0.999-0.244c0.996-0.243,1.988-0.495,2.976-0.759
	c0.328-0.087,0.655-0.176,0.982-0.266c1.032-0.283,2.059-0.577,3.082-0.882c0.254-0.076,0.509-0.15,0.763-0.227
	c1.215-0.369,2.425-0.752,3.626-1.152c0.049-0.016,0.097-0.031,0.146-0.047c3.973-1.327,7.87-2.818,11.683-4.467
	c0.014-0.006,0.028-0.012,0.042-0.018c1.256-0.543,2.503-1.104,3.74-1.681c0.022-0.01,0.044-0.021,0.066-0.031
	c21.356-9.973,39.919-24.929,54.201-43.369l0.014,0.011c2.363-3.052,4.608-6.201,6.731-9.437c0.06-0.091,0.12-0.181,0.179-0.272
	c0.478-0.732,0.948-1.469,1.414-2.21c0.086-0.137,0.171-0.274,0.257-0.411c0.462-0.742,0.919-1.487,1.368-2.238
	c0.049-0.081,0.096-0.163,0.145-0.245c1.904-3.195,3.688-6.468,5.35-9.813c0.108-0.217,0.217-0.434,0.324-0.652
	c0.339-0.691,0.672-1.386,1-2.083c0.129-0.275,0.257-0.55,0.385-0.825c0.316-0.682,0.63-1.367,0.936-2.055
	c0.12-0.269,0.237-0.541,0.355-0.811c1.006-2.298,1.954-4.626,2.845-6.983c0.107-0.283,0.217-0.564,0.322-0.847
	c0.232-0.626,0.455-1.257,0.679-1.887c0.146-0.411,0.292-0.821,0.435-1.234c0.207-0.6,0.409-1.202,0.608-1.805
	c0.15-0.452,0.296-0.906,0.442-1.36c0.186-0.583,0.371-1.167,0.55-1.753c0.15-0.492,0.295-0.986,0.441-1.481
	c0.165-0.562,0.332-1.122,0.491-1.687c0.175-0.624,0.341-1.251,0.508-1.879c0.215-0.805,0.423-1.613,0.624-2.424
	c0.162-0.651,0.325-1.302,0.478-1.957c0.117-0.5,0.226-1.003,0.338-1.504c0.134-0.604,0.268-1.208,0.395-1.814
	c0.106-0.505,0.207-1.012,0.308-1.518c0.123-0.621,0.242-1.243,0.358-1.867c0.09-0.488,0.18-0.975,0.265-1.464
	c0.119-0.684,0.231-1.37,0.341-2.057c0.069-0.433,0.142-0.866,0.207-1.3c0.156-1.034,0.301-2.07,0.436-3.111
	c0.029-0.224,0.055-0.449,0.083-0.673c0.122-0.981,0.235-1.965,0.337-2.951c0.042-0.405,0.077-0.812,0.116-1.217
	c0.072-0.75,0.14-1.501,0.2-2.254c0.035-0.445,0.067-0.89,0.099-1.336c0.052-0.73,0.098-1.462,0.139-2.195
	c0.025-0.442,0.049-0.884,0.07-1.327c0.037-0.785,0.066-1.573,0.09-2.361c0.012-0.382,0.027-0.763,0.036-1.146
	c0.027-1.157,0.044-2.316,0.044-3.479c0-0.011,0-0.022,0-0.033h-45.936V169.2z"/>
<path style="fill:#FFB125;" d="M391.788,169.2H244.739l116.32,89.959C380.319,234.291,391.788,203.087,391.788,169.2z"/>
<path style="fill:#FF901D;" d="M345.853,169.2c0,23.77-5.646,46.218-15.661,66.087l30.867,23.872
	c2.364-3.052,4.609-6.201,6.731-9.437c0.06-0.091,0.12-0.181,0.179-0.272c0.478-0.732,0.948-1.469,1.414-2.21
	c0.086-0.137,0.171-0.274,0.257-0.411c0.462-0.742,0.919-1.487,1.368-2.238c0.049-0.081,0.096-0.163,0.145-0.245
	c1.904-3.195,3.688-6.468,5.35-9.813c0.108-0.217,0.217-0.434,0.324-0.651c0.339-0.691,0.672-1.386,1-2.083
	c0.129-0.275,0.257-0.55,0.385-0.825c0.317-0.682,0.63-1.367,0.936-2.055c0.12-0.269,0.237-0.541,0.355-0.811
	c1.006-2.298,1.954-4.626,2.845-6.983c0.107-0.283,0.217-0.564,0.322-0.847c0.232-0.626,0.456-1.257,0.679-1.887
	c0.146-0.411,0.292-0.821,0.435-1.234c0.207-0.6,0.408-1.202,0.608-1.805c0.149-0.453,0.296-0.906,0.442-1.36
	c0.186-0.583,0.371-1.167,0.55-1.753c0.15-0.492,0.295-0.986,0.44-1.481c0.165-0.562,0.333-1.122,0.491-1.687
	c0.175-0.624,0.341-1.251,0.508-1.879c0.215-0.805,0.423-1.613,0.624-2.424c0.162-0.651,0.324-1.302,0.478-1.957
	c0.117-0.5,0.226-1.003,0.338-1.504c0.134-0.604,0.268-1.208,0.395-1.814c0.106-0.505,0.207-1.012,0.308-1.518
	c0.123-0.621,0.242-1.243,0.358-1.867c0.09-0.488,0.18-0.975,0.265-1.464c0.119-0.684,0.231-1.37,0.341-2.057
	c0.069-0.433,0.142-0.866,0.207-1.3c0.156-1.034,0.301-2.07,0.435-3.111c0.029-0.224,0.055-0.449,0.083-0.673
	c0.122-0.981,0.235-1.965,0.338-2.951c0.042-0.405,0.077-0.811,0.116-1.217c0.072-0.75,0.14-1.501,0.2-2.254
	c0.036-0.445,0.068-0.89,0.099-1.336c0.052-0.73,0.098-1.462,0.139-2.195c0.025-0.442,0.049-0.884,0.07-1.327
	c0.037-0.785,0.065-1.573,0.09-2.361c0.012-0.382,0.027-0.763,0.036-1.146c0.027-1.157,0.044-2.316,0.044-3.479
	c0-0.011,0.001-0.022,0.001-0.033h-45.935V169.2z"/>
<path style="fill:#FFB125;" d="M40.709,488.193V317.337c0-3.685,2.987-6.671,6.671-6.671h61.767c3.685,0,6.671,2.987,6.671,6.671
	v170.856H40.709z"/>
<path style="fill:#61AFF6;" d="M396.184,488.193V282.522c0-3.685,2.987-6.671,6.671-6.671h61.767c3.685,0,6.671,2.987,6.671,6.671
	v205.671H396.184"/>
<path style="fill:#55A2EF;" d="M464.622,275.85h-45.021c3.684,0,6.671,2.987,6.671,6.671v205.671h45.021v-205.67
	C471.293,278.837,468.307,275.85,464.622,275.85z"/>
<path style="fill:#21D8DE;" d="M277.692,488.193V349.351c0-3.685,2.987-6.671,6.671-6.671h61.767c3.685,0,6.671,2.987,6.671,6.671
	v138.842H277.692z"/>
<path style="fill:#10C4C4;" d="M346.13,342.68h-38.349v145.513h45.02V349.351C352.801,345.667,349.815,342.68,346.13,342.68z"/>
<path style="fill:#FF901D;" d="M109.147,310.666H70.798v177.527h45.021V317.337C115.819,313.653,112.832,310.666,109.147,310.666z"
	/>
<path style="fill:#FF6D3A;" d="M159.201,488.193V402.82c0-3.685,2.987-6.671,6.671-6.671h61.766c3.685,0,6.671,2.987,6.671,6.671
	v85.373H159.201z"/>
<path style="fill:#ED5729;" d="M227.637,396.148h-38.349v92.045h45.021V402.82C234.31,399.135,231.323,396.148,227.637,396.148z"/>
<path style="fill:#21D8DE;" d="M414.014,137.422C409.452,63.975,350.982,5.137,277.692,0v137.422H414.014z"/>
<path style="fill:#10C4C4;" d="M277.692,0v10.456c51.011,20.785,87.725,69.384,91.302,126.966h45.021
	C409.452,63.975,350.982,5.137,277.692,0z"/>
<path style="fill:#998675;" d="M492.816,512H19.186c-3.47,0-6.284-2.813-6.284-6.284v-14.659c0-3.47,2.813-6.284,6.284-6.284
	h473.629c3.47,0,6.284,2.813,6.284,6.284v14.659C499.099,509.187,496.286,512,492.816,512z"/>
<path style="fill:#736357;" d="M492.816,500.317H19.186c-3.47,0-6.284-2.813-6.284-6.284v11.683c0,3.47,2.813,6.284,6.284,6.284
	h473.629c3.47,0,6.283-2.813,6.283-6.284v-11.683C499.099,497.504,496.286,500.317,492.816,500.317z"/>
<g>
</g>
<g>
</g>
<g>
</g>
<g>
</g>
<g>
</g>
<g>
</g>
<g>
</g>
<g>
</g>
<g>
</g>
<g>
</g>
<g>
</g>
<g>
</g>
<g>
</g>
<g>
</g>
<g>
</g>
</svg>
