<svg id="OBJECT" height="512" viewBox="0 0 32 32" width="512" xmlns="http://www.w3.org/2000/svg"><path d="m27 17h-4.5a1 1 0 0 1 0-2h4.5a2 2 0 0 0 0-4h-1.51a1 1 0 0 1 -1-1 .62.62 0 0 1 0-.13 1.5 1.5 0 0 0 -1.49-1.44 1 1 0 0 1 -1.16-.76 6 6 0 0 0 -11.68 0 1 1 0 0 1 -1.16.77 1.49 1.49 0 0 0 -1.5 1.43.62.62 0 0 1 0 .13 1 1 0 0 1 -1 1h-1.5a2 2 0 0 0 0 4h4.5a1 1 0 0 1 0 2h-4.5a4 4 0 0 1 0-8h.62a3.52 3.52 0 0 1 2.79-2.52 8 8 0 0 1 15.18 0 3.52 3.52 0 0 1 2.79 2.52h.62a4 4 0 0 1 0 8z" fill="#011839"/><path d="m22 21h-2.5v-8a3 3 0 0 0 -3-3h-1a3 3 0 0 0 -3 3v8h-2.5a1 1 0 0 0 -.85 1.53l4.47 7.15a2.81 2.81 0 0 0 4.76 0l4.47-7.15a1 1 0 0 0 -.85-1.53z" fill="#7738c8"/></svg>