<svg height="32pt" viewBox="0 -42 512 511" width="32pt" xmlns="http://www.w3.org/2000/svg"><path d="m512 74.878906v206.488282c0 9.195312-7.460938 16.65625-16.65625 16.65625h-349.363281c-9.195313 0-16.65625-7.460938-16.65625-16.65625v-264.210938c0-9.195312 7.460937-16.65625 16.65625-16.65625h113.101562c6.34375 0 12.136719 3.605469 14.9375 9.285156l19.304688 39.152344c2.800781 5.683594 8.59375 9.289062 14.941406 9.289062h187.078125c9.195312 0 16.65625 7.457032 16.65625 16.652344zm0 0" fill="#00aa63"/><path d="m512 74.878906v206.488282c0 9.195312-7.460938 16.65625-16.65625 16.65625h-165.335938v-239.796876h165.335938c9.195312 0 16.65625 7.457032 16.65625 16.652344zm0 0" fill="#087"/><path d="m447.335938 139.542969v206.488281c0 9.195312-7.457032 16.652344-16.652344 16.652344h-349.367188c-9.195312 0-16.652344-7.457032-16.652344-16.652344v-264.214844c0-9.195312 7.457032-16.652344 16.652344-16.652344h113.101563c6.347656 0 12.140625 3.601563 14.941406 9.285157l19.304687 39.152343c2.800782 5.691407 8.59375 9.285157 14.9375 9.285157h187.082032c9.195312 0 16.652344 7.460937 16.652344 16.65625zm0 0" fill="#ffc43b"/><path d="m447.335938 139.542969v206.488281c0 9.195312-7.457032 16.652344-16.652344 16.652344h-174.683594v-239.796875h174.683594c9.195312 0 16.652344 7.460937 16.652344 16.65625zm0 0" fill="#ffa433"/><path d="m382.675781 204.207031v206.484375c0 9.195313-7.460937 16.65625-16.65625 16.65625h-349.363281c-9.195312 0-16.65625-7.460937-16.65625-16.65625v-264.210937c0-9.195313 7.460938-16.65625 16.65625-16.65625h113.101562c6.34375 0 12.125 3.605469 14.9375 9.289062l19.304688 39.152344c2.800781 5.691406 8.59375 9.296875 14.929688 9.296875h187.089843c9.195313 0 16.65625 7.449219 16.65625 16.644531zm0 0" fill="#ff6f44"/><path d="m382.675781 204.207031v206.484375c0 9.195313-7.460937 16.65625-16.65625 16.65625h-174.683593v-239.785156h174.683593c9.195313 0 16.65625 7.449219 16.65625 16.644531zm0 0" fill="#ff451b"/><g fill="#fff"><path d="m268.324219 382.089844c-8.316407 0-15.058594-6.742188-15.058594-15.058594v-9.253906c0-8.316406 6.742187-15.058594 15.058594-15.058594 8.320312 0 15.0625 6.742188 15.0625 15.058594v9.253906c0 8.316406-6.742188 15.058594-15.0625 15.058594zm0 0"/><path d="m314.953125 382.089844c-8.316406 0-15.058594-6.742188-15.058594-15.058594v-9.253906c0-8.316406 6.742188-15.058594 15.058594-15.058594s15.058594 6.742188 15.058594 15.058594v9.253906c0 8.316406-6.742188 15.058594-15.058594 15.058594zm0 0"/></g></svg>