<?xml version="1.0" encoding="UTF-8" standalone="no"?>
<!-- Created with Inkscape (http://www.inkscape.org/) -->

<svg
   version="1.1"
   id="svg3462"
   xml:space="preserve"
   width="40"
   height="40"
   viewBox="0 0 682.66669 682.66669"
   xmlns="http://www.w3.org/2000/svg"
   xmlns:svg="http://www.w3.org/2000/svg"><defs
     id="defs3466"><clipPath
       clipPathUnits="userSpaceOnUse"
       id="clipPath3476"><path
         d="M 0,512 H 512 V 0 H 0 Z"
         id="path3474" /></clipPath></defs><g
     id="g3468"
     transform="matrix(1.3333333,0,0,-1.3333333,0,682.66667)"><g
       id="g3470"><g
         id="g3472"
         clip-path="url(#clipPath3476)"><g
           id="g3478"
           transform="translate(345.8521,7.5044)"><path
             d="m 0,0 h -277.75 c -31.629,0 -57.27,25.641 -57.27,57.27 v 341.646 c 0,31.629 25.641,57.27 57.27,57.27 H 0 c 31.629,0 57.27,-25.641 57.27,-57.27 V 57.27 C 57.27,25.641 31.629,0 0,0"
             style="fill:#c67d66;fill-opacity:1;fill-rule:nonzero;stroke:none"
             id="path3480" /></g><g
           id="g3482"
           transform="translate(87.355,7.5)"><path
             d="m 0,0 h -19.257 c -31.631,0 -57.266,25.646 -57.266,57.276 v 341.649 c 0,31.62 25.635,57.265 57.266,57.265 H 0 c -31.63,0 -57.276,-25.645 -57.276,-57.265 V 57.276 C -57.276,25.646 -31.63,0 0,0"
             style="fill:#aa593d;fill-opacity:1;fill-rule:nonzero;stroke:none"
             id="path3484" /></g><g
           id="g3486"
           transform="translate(403.1245,347.2778)"><path
             d="m 0,0 v -15.298 -176.841 -90.363 c 0,-31.63 -25.635,-57.276 -57.266,-57.276 h -277.757 c -31.621,0 -57.266,25.646 -57.266,57.276 V 59.147 c 0,31.62 25.645,57.265 57.266,57.265 h 27.433"
             style="fill:none;stroke:#000000;stroke-width:15;stroke-linecap:round;stroke-linejoin:round;stroke-miterlimit:10;stroke-dasharray:none;stroke-opacity:1"
             id="path3488" /></g><g
           id="g3490"
           transform="translate(318.4253,463.6899)"><path
             d="m 0,0 h 27.434 c 2.149,0 4.269,-0.114 6.346,-0.351"
             style="fill:none;stroke:#000000;stroke-width:15;stroke-linecap:round;stroke-linejoin:round;stroke-miterlimit:10;stroke-dasharray:none;stroke-opacity:1"
             id="path3492" /></g><g
           id="g3494"
           transform="translate(333.9751,59.5127)"><path
             d="m 0,0 h -253.996 c -12.748,0 -23.083,10.334 -23.083,23.083 v 306.003 c 0,12.749 10.335,23.083 23.083,23.083 H 0 c 12.748,0 23.083,-10.334 23.083,-23.083 V 23.083 C 23.083,10.334 12.748,0 0,0"
             style="fill:#dfeaef;fill-opacity:1;fill-rule:nonzero;stroke:none"
             id="path3496" /></g><g
           id="g3498"
           transform="translate(56.8999,135.6001)"><path
             d="m 0,0 v 253 c 0,12.75 10.33,23.09 23.08,23.09 h 17.36"
             style="fill:none;stroke:#000000;stroke-width:15;stroke-linecap:round;stroke-linejoin:round;stroke-miterlimit:10;stroke-dasharray:none;stroke-opacity:1"
             id="path3500" /></g><g
           id="g3502"
           transform="translate(357.0601,378.2402)"><path
             d="m 0,0 v -131.01 -145.71 -18.92 c 0,-12.75 -10.33,-23.09 -23.08,-23.09 h -254 c -12.75,0 -23.08,10.34 -23.08,23.09 v 23"
             style="fill:none;stroke:#000000;stroke-width:15;stroke-linecap:round;stroke-linejoin:round;stroke-miterlimit:10;stroke-dasharray:none;stroke-opacity:1"
             id="path3504" /></g><g
           id="g3506"
           transform="translate(316.6162,411.686)"><path
             d="m 0,0 h 17.366 c 3.421,0 6.667,-0.744 9.582,-2.078"
             style="fill:none;stroke:#000000;stroke-width:15;stroke-linecap:round;stroke-linejoin:round;stroke-miterlimit:10;stroke-dasharray:none;stroke-opacity:1"
             id="path3508" /></g><g
           id="g3510"
           transform="translate(281.7456,504.4995)"><path
             d="m 0,0 h -149.537 c -20.256,0 -36.678,-16.421 -36.678,-36.678 v -44.723 c 0,-20.257 16.422,-36.678 36.678,-36.678 H 0 c 20.256,0 36.677,16.421 36.677,36.678 v 44.723 C 36.677,-16.421 20.256,0 0,0"
             style="fill:#f6e266;fill-opacity:1;fill-rule:nonzero;stroke:none"
             id="path3512" /></g><g
           id="g3514"
           transform="translate(161.0762,386.4238)"><path
             d="M 0,0 H -28.871 C -49.13,0 -65.545,16.415 -65.545,36.675 v 44.726 c 0,20.25 16.415,36.675 36.674,36.675 H 0 c -20.25,0 -36.675,-16.425 -36.675,-36.675 V 36.675 C -36.675,16.415 -20.25,0 0,0"
             style="fill:#ecc32e;fill-opacity:1;fill-rule:nonzero;stroke:none"
             id="path3516" /></g><g
           id="g3518"
           transform="translate(281.7456,504.4995)"><path
             d="m 0,0 h -149.537 c -20.256,0 -36.678,-16.421 -36.678,-36.678 v -44.723 c 0,-20.257 16.422,-36.678 36.678,-36.678 H 0 c 20.256,0 36.677,16.421 36.677,36.678 v 44.723 C 36.677,-16.421 20.256,0 0,0 Z"
             style="fill:none;stroke:#000000;stroke-width:15;stroke-linecap:round;stroke-linejoin:round;stroke-miterlimit:10;stroke-dasharray:none;stroke-opacity:1"
             id="path3520" /></g><g
           id="g3522"
           transform="translate(183.5571,446.1143)"><path
             d="m 0,0 c 0,13.668 -11.081,24.749 -24.749,24.749 -13.668,0 -24.749,-11.081 -24.749,-24.749 0,-13.668 11.081,-24.749 24.749,-24.749 C -11.081,-24.749 0,-13.668 0,0"
             style="fill:#617881;fill-opacity:1;fill-rule:nonzero;stroke:none"
             id="path3524" /></g><g
           id="g3526"
           transform="translate(279.895,446.1143)"><path
             d="m 0,0 c 0,13.668 -11.081,24.749 -24.749,24.749 -13.668,0 -24.749,-11.081 -24.749,-24.749 0,-13.668 11.081,-24.749 24.749,-24.749 C -11.081,-24.749 0,-13.668 0,0"
             style="fill:#617881;fill-opacity:1;fill-rule:nonzero;stroke:none"
             id="path3528" /></g><g
           id="g3530"
           transform="translate(183.5571,446.1143)"><path
             d="m 0,0 c 0,13.668 -11.081,24.749 -24.749,24.749 -13.668,0 -24.749,-11.081 -24.749,-24.749 0,-13.668 11.081,-24.749 24.749,-24.749 C -11.081,-24.749 0,-13.668 0,0 Z"
             style="fill:none;stroke:#000000;stroke-width:15;stroke-linecap:round;stroke-linejoin:round;stroke-miterlimit:10;stroke-dasharray:none;stroke-opacity:1"
             id="path3532" /></g><g
           id="g3534"
           transform="translate(279.895,446.1143)"><path
             d="m 0,0 c 0,13.668 -11.081,24.749 -24.749,24.749 -13.668,0 -24.749,-11.081 -24.749,-24.749 0,-13.668 11.081,-24.749 24.749,-24.749 C -11.081,-24.749 0,-13.668 0,0 Z"
             style="fill:none;stroke:#000000;stroke-width:15;stroke-linecap:round;stroke-linejoin:round;stroke-miterlimit:10;stroke-dasharray:none;stroke-opacity:1"
             id="path3536" /></g><g
           id="g3538"
           transform="translate(342.146,424.606)"><path
             d="m 0,0 c 0,-43.913 35.598,-79.511 79.511,-79.511 43.913,0 79.511,35.598 79.511,79.511 0,43.913 -35.598,79.511 -79.511,79.511 C 35.598,79.511 0,43.913 0,0"
             style="fill:#80e29d;fill-opacity:1;fill-rule:nonzero;stroke:none"
             id="path3540" /></g><g
           id="g3542"
           transform="translate(431.9722,345.7573)"><path
             d="m 0,0 c -3.38,-0.434 -6.822,-0.661 -10.316,-0.661 -43.911,0 -79.51,35.599 -79.51,79.51 0,43.91 35.599,79.509 79.51,79.509 3.494,0 6.936,-0.227 10.316,-0.661 C -39.042,152.643 -69.205,119.265 -69.205,78.849 -69.205,38.432 -39.042,5.055 0,0"
             style="fill:#6ec186;fill-opacity:1;fill-rule:nonzero;stroke:none"
             id="path3544" /></g><g
           id="g3546"
           transform="translate(480.5498,371.1802)"><path
             d="m 0,0 c 12.81,14.12 20.62,32.86 20.62,53.43 0,43.91 -35.6,79.51 -79.51,79.51 -43.92,0 -79.51,-35.6 -79.51,-79.51 0,-43.92 35.59,-79.52 79.51,-79.52 12.72,0 24.74,2.99 35.4,8.3"
             style="fill:none;stroke:#000000;stroke-width:15;stroke-linecap:butt;stroke-linejoin:round;stroke-miterlimit:10;stroke-dasharray:none;stroke-opacity:1"
             id="path3548" /></g><g
           id="g3550"
           transform="translate(383.3945,419.4717)"><path
             d="M 0,0 32.999,-32.999 81.122,39.874"
             style="fill:none;stroke:#000000;stroke-width:15;stroke-linecap:round;stroke-linejoin:round;stroke-miterlimit:10;stroke-dasharray:none;stroke-opacity:1"
             id="path3552" /></g><g
           id="g3554"
           transform="translate(103.8555,337.6333)"><path
             d="M 0,0 H 206.243"
             style="fill:none;stroke:#000000;stroke-width:15;stroke-linecap:round;stroke-linejoin:round;stroke-miterlimit:10;stroke-dasharray:none;stroke-opacity:1"
             id="path3556" /></g><g
           id="g3558"
           transform="translate(103.8555,254.0801)"><path
             d="M 0,0 H 206.243"
             style="fill:none;stroke:#000000;stroke-width:15;stroke-linecap:round;stroke-linejoin:round;stroke-miterlimit:10;stroke-dasharray:none;stroke-opacity:1"
             id="path3560" /></g><g
           id="g3562"
           transform="translate(103.8555,212.8315)"><path
             d="M 0,0 H 206.243"
             style="fill:none;stroke:#000000;stroke-width:15;stroke-linecap:round;stroke-linejoin:round;stroke-miterlimit:10;stroke-dasharray:none;stroke-opacity:1"
             id="path3564" /></g><g
           id="g3566"
           transform="translate(103.8555,171.583)"><path
             d="M 0,0 H 206.243"
             style="fill:none;stroke:#000000;stroke-width:15;stroke-linecap:round;stroke-linejoin:round;stroke-miterlimit:10;stroke-dasharray:none;stroke-opacity:1"
             id="path3568" /></g><g
           id="g3570"
           transform="translate(103.8555,130.3345)"><path
             d="M 0,0 H 105.404"
             style="fill:none;stroke:#000000;stroke-width:15;stroke-linecap:round;stroke-linejoin:round;stroke-miterlimit:10;stroke-dasharray:none;stroke-opacity:1"
             id="path3572" /></g></g></g></g></svg>
