<?xml version="1.0" encoding="iso-8859-1"?>
<!-- Generator: Adobe Illustrator 19.0.0, SVG Export Plug-In . SVG Version: 6.00 Build 0)  -->
<svg version="1.1" id="Capa_1" xmlns="http://www.w3.org/2000/svg" xmlns:xlink="http://www.w3.org/1999/xlink" x="0px" y="0px"
	 viewBox="0 0 511.999 511.999" style="enable-background:new 0 0 511.999 511.999;" xml:space="preserve">
<path style="fill:#76FFD9;" d="M90.561,190.183l-82.657,0.155l0.404,214.909c0.034,18.185,14.94,33.035,33.125,33.001l49.594-0.093
	L90.561,190.183z"/>
<path style="fill:#FFFFFF;" d="M503.847,189.406l-413.285,0.777l0.466,247.972l380.223-0.715
	c18.185-0.034,33.035-14.94,33.001-33.125L503.847,189.406z"/>
<rect x="7.861" y="140.67" transform="matrix(-1 0.0019 -0.0019 -1 98.6938 330.8405)" style="fill:#E1EAF8;" width="82.657" height="49.594"/>
<rect x="90.523" y="140.189" transform="matrix(-1 0.0019 -0.0019 -1 594.6468 329.4085)" style="fill:#76FFD9;" width="413.287" height="49.594"/>
<path style="fill:#FFC843;" d="M503.754,139.812l-0.062-33.063c-0.034-18.185-14.94-33.035-33.125-33.001L40.75,74.556
	C22.566,74.59,7.715,89.496,7.749,107.681l0.062,33.063L503.754,139.812z"/>
<path style="fill:#434C54;" d="M511.969,387.774c0-0.002,0-0.004,0-0.005s0-0.004,0-0.005l-0.093-49.586c0,0,0-0.001,0-0.002
	c0,0,0-0.001,0-0.002l-0.186-99.18c0-0.002,0-0.004,0-0.005s0-0.004,0-0.005l-0.093-49.586c0,0,0-0.001,0-0.002c0,0,0-0.001,0-0.002
	l-0.155-82.654c-0.042-22.461-18.35-40.736-40.888-40.736L40.736,66.811C18.231,66.849-0.042,85.192,0,107.695l0.062,33.062v0.001
	v0.001l0.093,49.585c0,0.003,0,0.005,0,0.008c0,0.003,0,0.005,0,0.008l0.093,49.582c0,0.001,0,0.003,0,0.004
	c0,0.001,0,0.003,0,0.004l0.093,49.589v0.001v0.001l0.217,115.718c0.042,22.461,18.35,40.736,40.811,40.736h0.077l429.818-0.808
	c22.503-0.042,40.777-18.385,40.735-40.89L511.969,387.774z M83.264,430.42l-41.845,0.079H41.37c-1.494,0-2.97-0.062-4.379-0.387
	c-4.296-0.995-7.495-2.166-15.214-8.927c-4.231-3.706-5.709-9.908-5.72-15.952l-0.017-8.782l-0.466-247.971l-0.029-15.498
	l-0.048-25.315c-0.012-6.725,2.618-13.076,7.409-17.885c4.79-4.809,11.132-7.464,17.857-7.476l429.865-0.808
	c13.931,0,25.287,11.334,25.313,25.266l0.048,25.313l0.495,263.47l0.017,8.782c0.026,13.958-11.307,25.335-25.266,25.361
	l-41.845,0.078L83.264,430.42z"/>
<g>
	<path style="fill:#00C395;" d="M90.733,425.363L90.733,425.363c4.28,0,7.749-3.47,7.749-7.749V149.58
		c0-4.28-3.47-7.749-7.749-7.749l0,0c-4.28,0-7.749,3.47-7.749,7.749v268.034C82.984,421.893,86.453,425.363,90.733,425.363z"/>
	<path style="fill:#00C395;" d="M25.618,189.795L25.618,189.795c0,4.28,3.47,7.749,7.749,7.749h445.321
		c4.28,0,7.749-3.47,7.749-7.749l0,0c0-4.28-3.47-7.749-7.749-7.749H33.367C29.087,182.046,25.618,185.515,25.618,189.795z"/>
	<path style="fill:#00C395;" d="M25.343,239.467L25.343,239.467c0,4.28,3.47,7.749,7.749,7.749h445.321
		c4.28,0,7.749-3.47,7.749-7.749l0,0c0-4.28-3.47-7.749-7.749-7.749H33.091C28.811,231.717,25.343,235.187,25.343,239.467z"/>
	<path style="fill:#00C395;" d="M25.067,289.138L25.067,289.138c0,4.28,3.47,7.749,7.749,7.749h445.321
		c4.28,0,7.749-3.47,7.749-7.749l0,0c0-4.28-3.47-7.749-7.749-7.749H32.815C28.535,281.39,25.067,284.859,25.067,289.138z"/>
	<path style="fill:#00C395;" d="M24.791,338.81L24.791,338.81c0,4.28,3.47,7.749,7.749,7.749h445.321c4.28,0,7.749-3.47,7.749-7.749
		l0,0c0-4.28-3.47-7.749-7.749-7.749H32.539C28.26,331.062,24.791,334.532,24.791,338.81z"/>
	<path style="fill:#00C395;" d="M24.515,388.483L24.515,388.483c0,4.28,3.47,7.749,7.749,7.749h445.321
		c4.28,0,7.749-3.47,7.749-7.749l0,0c0-4.28-3.47-7.749-7.749-7.749H32.263C27.984,380.734,24.515,384.204,24.515,388.483z"/>
	<path style="fill:#00C395;" d="M173.452,425.363L173.452,425.363c4.28,0,7.749-3.47,7.749-7.749V149.58
		c0-4.28-3.47-7.749-7.749-7.749l0,0c-4.28,0-7.749,3.47-7.749,7.749v268.034C165.703,421.893,169.173,425.363,173.452,425.363z"/>
	<path style="fill:#00C395;" d="M256.171,425.363L256.171,425.363c4.28,0,7.749-3.47,7.749-7.749V149.58
		c0-4.28-3.47-7.749-7.749-7.749l0,0c-4.28,0-7.749,3.47-7.749,7.749v268.034C248.421,421.893,251.891,425.363,256.171,425.363z"/>
	<path style="fill:#00C395;" d="M338.89,425.363L338.89,425.363c4.28,0,7.749-3.47,7.749-7.749V149.58
		c0-4.28-3.47-7.749-7.749-7.749l0,0c-4.28,0-7.749,3.47-7.749,7.749v268.034C331.141,421.893,334.61,425.363,338.89,425.363z"/>
	<path style="fill:#00C395;" d="M421.608,425.363L421.608,425.363c4.28,0,7.749-3.47,7.749-7.749V149.58
		c0-4.28-3.47-7.749-7.749-7.749l0,0c-4.28,0-7.749,3.47-7.749,7.749v268.034C413.86,421.893,417.328,425.363,421.608,425.363z"/>
</g>
<g>
	<path style="fill:#FFFFFF;" d="M40.811,115.368c0.005,0,0.01,0,0.015,0l16.531-0.031c4.28-0.008,7.743-3.484,7.735-7.764
		c-0.008-4.274-3.476-7.735-7.749-7.735c-0.005,0-0.01,0-0.015,0L40.797,99.87c-4.28,0.008-7.743,3.484-7.735,7.764
		C33.07,111.909,36.539,115.368,40.811,115.368z"/>
	<path style="fill:#FFFFFF;" d="M123.468,115.213c0.005,0,0.01,0,0.015,0l16.531-0.031c4.28-0.008,7.743-3.484,7.735-7.764
		c-0.008-4.274-3.476-7.735-7.749-7.735c-0.005,0-0.01,0-0.015,0l-16.531,0.031c-4.28,0.008-7.743,3.484-7.735,7.764
		C115.728,111.753,119.195,115.213,123.468,115.213z"/>
	<path style="fill:#FFFFFF;" d="M206.126,115.057c0.005,0,0.01,0,0.016,0l16.531-0.031c4.28-0.008,7.743-3.484,7.735-7.764
		c-0.008-4.274-3.476-7.735-7.749-7.735c-0.005,0-0.01,0-0.016,0l-16.531,0.031c-4.28,0.008-7.743,3.484-7.735,7.764
		C198.385,111.598,201.852,115.057,206.126,115.057z"/>
	<path style="fill:#FFFFFF;" d="M288.783,114.902c0.005,0,0.01,0,0.016,0l16.531-0.031c4.28-0.008,7.743-3.484,7.735-7.764
		c-0.008-4.274-3.476-7.735-7.749-7.735c-0.005,0-0.01,0-0.016,0l-16.531,0.031c-4.28,0.008-7.743,3.484-7.735,7.764
		C281.042,111.442,284.51,114.902,288.783,114.902z"/>
</g>
<path style="fill:#00C395;" d="M288.891,172.762c0.005,0,0.01,0,0.016,0l16.531-0.031c4.28-0.008,7.743-3.484,7.735-7.764
	c-0.008-4.274-3.476-7.735-7.749-7.735c-0.005,0-0.01,0-0.016,0l-16.531,0.031c-4.28,0.008-7.743,3.484-7.735,7.764
	C281.151,169.302,284.619,172.762,288.891,172.762z"/>
<g>
	<path style="fill:#C1C8D2;" d="M288.984,222.357c0.005,0,0.01,0,0.016,0l16.531-0.031c4.28-0.008,7.743-3.484,7.735-7.764
		c-0.008-4.274-3.476-7.735-7.749-7.735c-0.005,0-0.01,0-0.016,0l-16.531,0.031c-4.28,0.008-7.743,3.484-7.735,7.764
		C281.245,218.896,284.712,222.357,288.984,222.357z"/>
	<path style="fill:#C1C8D2;" d="M222.954,256.577c-0.005,0-0.01,0-0.016,0l-16.531,0.031c-4.28,0.008-7.743,3.484-7.735,7.764
		c0.008,4.274,3.476,7.735,7.749,7.735c0.005,0,0.01,0,0.015,0l16.531-0.031c4.28-0.008,7.743-3.484,7.735-7.764
		C230.693,260.037,227.226,256.577,222.954,256.577z"/>
	<path style="fill:#C1C8D2;" d="M388.361,305.86c-0.005,0-0.01,0-0.016,0l-16.531,0.031c-4.28,0.008-7.743,3.484-7.735,7.764
		c0.008,4.274,3.476,7.735,7.749,7.735c0.005,0,0.01,0,0.016,0l16.531-0.031c4.28-0.008,7.743-3.484,7.735-7.764
		C396.101,309.32,392.634,305.86,388.361,305.86z"/>
	<path style="fill:#C1C8D2;" d="M140.389,306.327c-0.005,0-0.01,0-0.016,0l-16.531,0.031c-4.28,0.008-7.743,3.484-7.735,7.764
		c0.008,4.274,3.476,7.735,7.749,7.735c0.005,0,0.01,0,0.015,0l16.531-0.031c4.28-0.008,7.743-3.484,7.735-7.764
		C148.13,309.786,144.663,306.327,140.389,306.327z"/>
	<path style="fill:#C1C8D2;" d="M140.482,355.921c-0.005,0-0.01,0-0.016,0l-16.531,0.031c-4.28,0.008-7.743,3.484-7.735,7.764
		c0.008,4.274,3.476,7.735,7.749,7.735c0.005,0,0.01,0,0.015,0l16.531-0.031c4.28-0.008,7.743-3.484,7.735-7.764
		C148.223,359.381,144.756,355.921,140.482,355.921z"/>
	<path style="fill:#C1C8D2;" d="M305.797,355.61c-0.005,0-0.01,0-0.016,0l-16.531,0.031c-4.28,0.008-7.743,3.484-7.735,7.764
		c0.008,4.274,3.476,7.735,7.749,7.735c0.005,0,0.01,0,0.016,0l16.531-0.031c4.28-0.008,7.743-3.484,7.735-7.764
		C313.538,359.07,310.07,355.61,305.797,355.61z"/>
	<path style="fill:#C1C8D2;" d="M470.832,206.516c-0.005,0-0.01,0-0.016,0l-16.531,0.031c-4.28,0.008-7.743,3.484-7.735,7.764
		c0.008,4.274,3.476,7.735,7.749,7.735c0.005,0,0.01,0,0.016,0l16.531-0.031c4.28-0.008,7.743-3.484,7.735-7.764
		C478.572,209.977,475.104,206.516,470.832,206.516z"/>
</g>
<g>
	<path style="fill:#FFFFFF;" d="M371.44,114.747c0.005,0,0.01,0,0.016,0l16.531-0.031c4.28-0.008,7.743-3.484,7.735-7.764
		c-0.008-4.274-3.476-7.735-7.749-7.735c-0.005,0-0.01,0-0.016,0l-16.531,0.031c-4.28,0.008-7.743,3.484-7.735,7.764
		C363.699,111.287,367.167,114.747,371.44,114.747z"/>
	<path style="fill:#FFFFFF;" d="M454.098,114.591c0.005,0,0.01,0,0.016,0l16.531-0.031c4.28-0.008,7.743-3.484,7.735-7.764
		c-0.008-4.274-3.476-7.735-7.749-7.735c-0.005,0-0.01,0-0.016,0l-16.531,0.031c-4.28,0.008-7.743,3.484-7.735,7.764
		C446.357,111.132,449.824,114.591,454.098,114.591z"/>
</g>
<g>
</g>
<g>
</g>
<g>
</g>
<g>
</g>
<g>
</g>
<g>
</g>
<g>
</g>
<g>
</g>
<g>
</g>
<g>
</g>
<g>
</g>
<g>
</g>
<g>
</g>
<g>
</g>
<g>
</g>
</svg>
