<svg id="Capa_1" enable-background="new 0 0 512 512" height="40" viewBox="0 0 512 512" width="40" xmlns="http://www.w3.org/2000/svg"><g><path d="m376.279 151.264h-343.927c-17.867 0-32.351-14.484-32.351-32.351v-86.552c0-17.867 14.484-32.351 32.351-32.351h343.927c17.867 0 32.351 14.484 32.351 32.351v86.552c0 17.867-14.484 32.351-32.351 32.351z" fill="#97da7b"/><path d="m408.63 32.358v86.555c0 17.863-14.484 32.347-32.347 32.347h-43.731c17.874 0 32.358-14.484 32.358-32.347v-86.555c-.001-17.874-14.485-32.358-32.358-32.358h43.731c17.863 0 32.347 14.484 32.347 32.358z" fill="#80d261"/><path d="m479.648 331.632h-343.927c-17.867 0-32.351-14.484-32.351-32.351v-86.552c0-17.867 14.484-32.351 32.351-32.351h343.927c17.867 0 32.351 14.484 32.351 32.351v86.552c-.001 17.867-14.485 32.351-32.351 32.351z" fill="#ffe177"/><path d="m511.998 212.726v86.555c0 17.863-14.484 32.347-32.347 32.347h-43.731c17.873 0 32.358-14.484 32.358-32.347v-86.555c0-17.874-14.484-32.358-32.358-32.358h43.731c17.863 0 32.347 14.484 32.347 32.358z" fill="#fece85"/><path d="m436.174 512h-343.927c-17.867 0-32.351-14.484-32.351-32.351v-86.552c0-17.867 14.484-32.351 32.351-32.351h343.927c17.867 0 32.351 14.484 32.351 32.351v86.552c-.001 17.867-14.484 32.351-32.351 32.351z" fill="#bd80e1"/><path d="m468.524 393.094v86.555c0 17.863-14.484 32.347-32.347 32.347h-43.731c17.873 0 32.358-14.484 32.358-32.347v-86.555c0-17.874-14.484-32.358-32.358-32.358h43.731c17.863 0 32.347 14.485 32.347 32.358z" fill="#af66da"/><g><path d="m64.019 26.146h-17.169c-4.267 0-7.726 3.459-7.726 7.726s3.459 7.726 7.726 7.726h9.443v72.6c0 4.267 3.459 7.726 7.726 7.726s7.726-3.459 7.726-7.726v-80.326c0-4.267-3.459-7.726-7.726-7.726z" fill="#024c67"/><path d="m102.028 115.923c0-4.267-3.459-7.726-7.726-7.726h-.515c-4.267 0-7.726 3.459-7.726 7.726s3.459 7.726 7.726 7.726h.515c4.267 0 7.726-3.459 7.726-7.726z" fill="#024c67"/><path d="m146.801 60.09h214.552c4.267 0 7.726-3.459 7.726-7.726s-3.459-7.726-7.726-7.726h-214.552c-4.267 0-7.726 3.459-7.726 7.726s3.459 7.726 7.726 7.726z" fill="#eaf6ff"/><path d="m146.801 102.782h147.616c4.267 0 7.726-3.459 7.726-7.726s-3.459-7.726-7.726-7.726h-147.616c-4.267 0-7.726 3.459-7.726 7.726-.001 4.266 3.459 7.726 7.726 7.726z" fill="#eaf6ff"/><path d="m185.92 286.967c-9.216.116-19.032.185-26.632.184 4.53-6.011 11.222-15.074 20.717-28.641 5.032-7.19 8.308-13.961 9.736-20.124.059-.252.105-.508.137-.764l.397-3.107c.042-.325.062-.653.062-.98 0-15.594-12.687-28.28-28.281-28.28-13.483 0-25.154 9.592-27.749 22.807-.822 4.187 1.905 8.248 6.093 9.07 4.189.822 8.247-1.905 9.07-6.093 1.176-5.987 6.469-10.332 12.587-10.332 6.928 0 12.591 5.52 12.821 12.392l-.275 2.147c-1.033 4.15-3.473 8.994-7.259 14.403-12.741 18.205-20.345 28.161-24.43 33.51-5.019 6.571-6.897 9.031-5.553 13.4.78 2.534 2.704 4.479 5.278 5.337 1.038.346 2.173.725 17.615.725 6.097 0 14.426-.059 25.859-.203 4.267-.054 7.682-3.556 7.629-7.823-.053-4.266-3.553-7.723-7.822-7.628z" fill="#024c67"/><path d="m207.457 288.565c-4.267 0-7.726 3.459-7.726 7.726s3.459 7.726 7.726 7.726h.515c4.267 0 7.726-3.459 7.726-7.726s-3.459-7.726-7.726-7.726z" fill="#024c67"/><path d="m464.721 225.005h-214.552c-4.267 0-7.726 3.459-7.726 7.726s3.459 7.726 7.726 7.726h214.552c4.267 0 7.726-3.459 7.726-7.726s-3.459-7.726-7.726-7.726z" fill="#eaf6ff"/><path d="m397.785 283.15c4.267 0 7.726-3.459 7.726-7.726s-3.459-7.726-7.726-7.726h-147.616c-4.267 0-7.726 3.459-7.726 7.726s3.459 7.726 7.726 7.726z" fill="#eaf6ff"/><path d="m152.194 413.273c0-15.594-12.687-28.28-28.281-28.28-13.483 0-25.154 9.592-27.749 22.807-.822 4.187 1.905 8.248 6.093 9.07 4.186.82 8.247-1.905 9.07-6.093 1.176-5.987 6.469-10.333 12.587-10.333 7.073 0 12.828 5.755 12.828 12.827s-5.755 12.827-12.828 12.827c-4.267 0-7.726 3.459-7.726 7.726s3.459 7.726 7.726 7.726c7.073 0 12.828 5.755 12.828 12.828s-5.755 12.827-12.828 12.827c-6.365 0-11.826-4.741-12.704-11.029-.082-.589-.124-1.194-.124-1.798 0-4.267-3.459-7.726-7.726-7.726s-7.726 3.459-7.726 7.726c0 1.316.092 2.641.272 3.935 1.937 13.879 13.978 24.346 28.008 24.346 15.594 0 28.281-12.687 28.281-28.28 0-8.088-3.413-15.395-8.875-20.554 5.46-5.158 8.874-12.464 8.874-20.552z" fill="#024c67"/><path d="m164.498 468.933h-.515c-4.267 0-7.726 3.459-7.726 7.726s3.459 7.726 7.726 7.726h.515c4.267 0 7.726-3.459 7.726-7.726s-3.459-7.726-7.726-7.726z" fill="#024c67"/><g fill="#eaf6ff"><path d="m421.247 405.373h-214.552c-4.267 0-7.726 3.459-7.726 7.726s3.459 7.726 7.726 7.726h214.552c4.267 0 7.726-3.459 7.726-7.726.001-4.267-3.458-7.726-7.726-7.726z"/><path d="m354.312 448.065h-147.617c-4.267 0-7.726 3.459-7.726 7.726s3.459 7.726 7.726 7.726h147.617c4.267 0 7.726-3.459 7.726-7.726s-3.459-7.726-7.726-7.726z"/></g></g><g><path d="m63.829 259.418-12.135-2.545c-1.638 28.855 1.741 55.259 10.065 78.664 2.864 8.045-1.329 16.874-9.375 19.738-1.71.608-3.461.907-5.182.907-6.346 0-12.3-3.956-14.556-10.282-10.178-28.597-14.041-60.656-11.507-95.445l-12.96-2.72c-7.747-1.627-10.827-11.023-5.542-16.915l37.941-42.34c5.285-5.893 14.958-3.863 17.42 3.657l17.709 54.033c2.462 7.51-4.141 14.876-11.878 13.248z" fill="#017297"/></g></g></svg>